<svg width="25" height="26" viewBox="0 0 25 26" fill="none" xmlns="http://www.w3.org/2000/svg">
<path d="M12.5 0.842163C5.60708 0.842163 0 6.30221 0 13.0132C0 19.7242 5.60708 25.1843 12.5 25.1843C19.3929 25.1843 25 19.7242 25 13.0132C25 6.30221 19.3929 0.842163 12.5 0.842163ZM12.5 24.17C6.18184 24.17 1.04165 19.1651 1.04165 13.0132C1.04165 6.86132 6.18184 1.8564 12.5 1.8564C18.8182 1.8564 23.9583 6.86132 23.9583 13.0132C23.9583 19.1651 18.8182 24.17 12.5 24.17Z" fill="#FEFEFE"/>
<path d="M17.4693 12.5867L10.1776 8.0226C10.0179 7.92109 9.81143 7.91562 9.64663 8.00377C9.47876 8.09291 9.375 8.26331 9.375 8.44901V17.5773C9.375 17.763 9.47876 17.9334 9.64663 18.0225C9.72393 18.0637 9.8104 18.0844 9.89585 18.0844C9.99351 18.0844 10.0922 18.0577 10.1776 18.0037L17.4693 13.4396C17.6178 13.3465 17.7083 13.1855 17.7083 13.0132C17.7083 12.8408 17.6178 12.6799 17.4693 12.5867ZM10.4167 16.6482V9.3781L16.2242 13.0132L10.4167 16.6482Z" fill="#FEFEFE"/>
</svg>
